<svg height="800" viewBox="0 0 1000 800" width="1000" xmlns="http://www.w3.org/2000/svg">
<g class="chart">
<g class="x-axis" transform="translate(40,760)">
<line shape-rendering="crispEdges" stroke="#bbbbbb" stroke-width="1" x1="0" x2="940" y1="0" y2="0"/>
<g class="tick" transform="translate(63.827168,0)">
<line shape-rendering="crispEdges" stroke="#bbbbbb" stroke-width="1" x1="0" x2="0" y1="0" y2="6"/>
<text dy=".35em" fill="#080808" font-family="sans-serif" font-size="12px" text-anchor="middle" transform="rotate(0,0,16)" x="0" y="16">
A
</text>
</g>
<g class="tick" transform="translate(179.87654,0)">
<line shape-rendering="crispEdges" stroke="#bbbbbb" stroke-width="1" x1="0" x2="0" y1="0" y2="6"/>
<text dy=".35em" fill="#080808" font-family="sans-serif" font-size="12px" text-anchor="middle" transform="rotate(0,0,16)" x="0" y="16">
B
</text>
</g>
<g class="tick" transform="translate(295.92593,0)">
<line shape-rendering="crispEdges" stroke="#bbbbbb" stroke-width="1" x1="0" x2="0" y1="0" y2="6"/>
<text dy=".35em" fill="#080808" font-family="sans-serif" font-size="12px" text-anchor="middle" transform="rotate(0,0,16)" x="0" y="16">
C
</text>
</g>
<g class="tick" transform="translate(411.9753,0)">
<line shape-rendering="crispEdges" stroke="#bbbbbb" stroke-width="1" x1="0" x2="0" y1="0" y2="6"/>
<text dy=".35em" fill="#080808" font-family="sans-serif" font-size="12px" text-anchor="middle" transform="rotate(0,0,16)" x="0" y="16">
D
</text>
</g>
<g class="tick" transform="translate(528.02466,0)">
<line shape-rendering="crispEdges" stroke="#bbbbbb" stroke-width="1" x1="0" x2="0" y1="0" y2="6"/>
<text dy=".35em" fill="#080808" font-family="sans-serif" font-size="12px" text-anchor="middle" transform="rotate(0,0,16)" x="0" y="16">
E
</text>
</g>
<g class="tick" transform="translate(644.07404,0)">
<line shape-rendering="crispEdges" stroke="#bbbbbb" stroke-width="1" x1="0" x2="0" y1="0" y2="6"/>
<text dy=".35em" fill="#080808" font-family="sans-serif" font-size="12px" text-anchor="middle" transform="rotate(0,0,16)" x="0" y="16">
F
</text>
</g>
<g class="tick" transform="translate(760.1235,0)">
<line shape-rendering="crispEdges" stroke="#bbbbbb" stroke-width="1" x1="0" x2="0" y1="0" y2="6"/>
<text dy=".35em" fill="#080808" font-family="sans-serif" font-size="12px" text-anchor="middle" transform="rotate(0,0,16)" x="0" y="16">
G
</text>
</g>
<g class="tick" transform="translate(876.1728,0)">
<line shape-rendering="crispEdges" stroke="#bbbbbb" stroke-width="1" x1="0" x2="0" y1="0" y2="6"/>
<text dy=".35em" fill="#080808" font-family="sans-serif" font-size="12px" text-anchor="middle" transform="rotate(0,0,16)" x="0" y="16">
H
</text>
</g>
</g>
<g class="y-axis" transform="translate(40,30)">
<line shape-rendering="crispEdges" stroke="#bbbbbb" stroke-width="1" x1="0" x2="0" y1="0" y2="730"/>
<g class="tick" transform="translate(0,730)">
<line shape-rendering="crispEdges" stroke="#bbbbbb" stroke-width="1" x1="0" x2="-6" y1="0" y2="0"/>
<text dy=".35em" fill="#080808" font-family="sans-serif" font-size="12px" text-anchor="end" transform="rotate(0,-12,0)" x="-12" y="0">
0
</text>
</g>
<g class="tick" transform="translate(0,657)">
<line shape-rendering="crispEdges" stroke="#bbbbbb" stroke-width="1" x1="0" x2="-6" y1="0" y2="0"/>
<text dy=".35em" fill="#080808" font-family="sans-serif" font-size="12px" text-anchor="end" transform="rotate(0,-12,0)" x="-12" y="0">
20
</text>
</g>
<g class="tick" transform="translate(0,584)">
<line shape-rendering="crispEdges" stroke="#bbbbbb" stroke-width="1" x1="0" x2="-6" y1="0" y2="0"/>
<text dy=".35em" fill="#080808" font-family="sans-serif" font-size="12px" text-anchor="end" transform="rotate(0,-12,0)" x="-12" y="0">
40
</text>
</g>
<g class="tick" transform="translate(0,511)">
<line shape-rendering="crispEdges" stroke="#bbbbbb" stroke-width="1" x1="0" x2="-6" y1="0" y2="0"/>
<text dy=".35em" fill="#080808" font-family="sans-serif" font-size="12px" text-anchor="end" transform="rotate(0,-12,0)" x="-12" y="0">
60
</text>
</g>
<g class="tick" transform="translate(0,438)">
<line shape-rendering="crispEdges" stroke="#bbbbbb" stroke-width="1" x1="0" x2="-6" y1="0" y2="0"/>
<text dy=".35em" fill="#080808" font-family="sans-serif" font-size="12px" text-anchor="end" transform="rotate(0,-12,0)" x="-12" y="0">
80
</text>
</g>
<g class="tick" transform="translate(0,365)">
<line shape-rendering="crispEdges" stroke="#bbbbbb" stroke-width="1" x1="0" x2="-6" y1="0" y2="0"/>
<text dy=".35em" fill="#080808" font-family="sans-serif" font-size="12px" text-anchor="end" transform="rotate(0,-12,0)" x="-12" y="0">
100
</text>
</g>
<g class="tick" transform="translate(0,291.99997)">
<line shape-rendering="crispEdges" stroke="#bbbbbb" stroke-width="1" x1="0" x2="-6" y1="0" y2="0"/>
<text dy=".35em" fill="#080808" font-family="sans-serif" font-size="12px" text-anchor="end" transform="rotate(0,-12,0)" x="-12" y="0">
120
</text>
</g>
<g class="tick" transform="translate(0,219)">
<line shape-rendering="crispEdges" stroke="#bbbbbb" stroke-width="1" x1="0" x2="-6" y1="0" y2="0"/>
<text dy=".35em" fill="#080808" font-family="sans-serif" font-size="12px" text-anchor="end" transform="rotate(0,-12,0)" x="-12" y="0">
140
</text>
</g>
<g class="tick" transform="translate(0,146)">
<line shape-rendering="crispEdges" stroke="#bbbbbb" stroke-width="1" x1="0" x2="-6" y1="0" y2="0"/>
<text dy=".35em" fill="#080808" font-family="sans-serif" font-size="12px" text-anchor="end" transform="rotate(0,-12,0)" x="-12" y="0">
160
</text>
</g>
<g class="tick" transform="translate(0,73)">
<line shape-rendering="crispEdges" stroke="#bbbbbb" stroke-width="1" x1="0" x2="-6" y1="0" y2="0"/>
<text dy=".35em" fill="#080808" font-family="sans-serif" font-size="12px" text-anchor="end" transform="rotate(0,-12,0)" x="-12" y="0">
180
</text>
</g>
<g class="tick" transform="translate(0,0)">
<line shape-rendering="crispEdges" stroke="#bbbbbb" stroke-width="1" x1="0" x2="-6" y1="0" y2="0"/>
<text dy=".35em" fill="#080808" font-family="sans-serif" font-size="12px" text-anchor="end" transform="rotate(0,-12,0)" x="-12" y="0">
200
</text>
</g>
</g>
<g class="views" transform="translate(40,30)">
<g>
<g class="point" transform="translate(63.827168,657)">
<text dy=".35em" fill="#080808" font-family="sans-serif" font-size="14px" text-anchor="end" x="-9" y="13">
20
</text>
</g>
<g class="point" transform="translate(179.87654,474.5)">
<text dy=".35em" fill="#080808" font-family="sans-serif" font-size="14px" text-anchor="end" x="-9" y="13">
70
</text>
</g>
<g class="point" transform="translate(295.92593,255.50003)">
<text dy=".35em" fill="#080808" font-family="sans-serif" font-size="14px" text-anchor="end" x="-9" y="13">
130
</text>
</g>
<g class="point" transform="translate(411.9753,73)">
<text dy=".35em" fill="#080808" font-family="sans-serif" font-size="14px" text-anchor="end" x="-9" y="13">
180
</text>
</g>
<g class="point" transform="translate(528.02466,657)">
<text dy=".35em" fill="#080808" font-family="sans-serif" font-size="14px" text-anchor="end" x="-9" y="13">
20
</text>
</g>
<g class="point" transform="translate(644.07404,448.95)">
<text dy=".35em" fill="#080808" font-family="sans-serif" font-size="14px" text-anchor="end" x="-9" y="13">
77
</text>
</g>
<g class="point" transform="translate(760.1235,219)">
<text dy=".35em" fill="#080808" font-family="sans-serif" font-size="14px" text-anchor="end" x="-9" y="13">
140
</text>
</g>
<g class="point" transform="translate(876.1728,36.5)">
<text dy=".35em" fill="#080808" font-family="sans-serif" font-size="14px" text-anchor="end" x="-9" y="13">
190
</text>
</g>
<path class="line" d="M63.827168,657 L179.87654,474.5 L295.92593,255.50003 L411.9753,73 L528.02466,657 L644.07404,448.95 L760.1235,219 L876.1728,36.5" fill="none" stroke="#0e3569" stroke-width="2"/>
</g>
<g>
<g class="point" transform="translate(63.827168,532.9)">
<text dy=".35em" fill="#080808" font-family="sans-serif" font-size="14px" text-anchor="start" x="9" y="-13">
54
</text>
</g>
<g class="point" transform="translate(179.87654,584)">
<text dy=".35em" fill="#080808" font-family="sans-serif" font-size="14px" text-anchor="start" x="9" y="-13">
40
</text>
</g>
<g class="point" transform="translate(295.92593,547.5)">
<text dy=".35em" fill="#080808" font-family="sans-serif" font-size="14px" text-anchor="start" x="9" y="-13">
50
</text>
</g>
<g class="point" transform="translate(411.9753,448.95)">
<text dy=".35em" fill="#080808" font-family="sans-serif" font-size="14px" text-anchor="start" x="9" y="-13">
77
</text>
</g>
<g class="point" transform="translate(528.02466,397.84998)">
<text dy=".35em" fill="#080808" font-family="sans-serif" font-size="14px" text-anchor="start" x="9" y="-13">
91
</text>
</g>
<g class="point" transform="translate(644.07404,536.55)">
<text dy=".35em" fill="#080808" font-family="sans-serif" font-size="14px" text-anchor="start" x="9" y="-13">
53
</text>
</g>
<g class="point" transform="translate(760.1235,689.85)">
<text dy=".35em" fill="#080808" font-family="sans-serif" font-size="14px" text-anchor="start" x="9" y="-13">
11
</text>
</g>
<g class="point" transform="translate(876.1728,719.05)">
<text dy=".35em" fill="#080808" font-family="sans-serif" font-size="14px" text-anchor="start" x="9" y="-13">
3
</text>
</g>
<path class="line" d="M63.827168,532.9 L179.87654,584 L295.92593,547.5 L411.9753,448.95 L528.02466,397.84998 L644.07404,536.55 L760.1235,689.85 L876.1728,719.05" fill="none" stroke="#5095e5" stroke-width="2"/>
</g>
</g>
</g>
</svg>